<svg width="26" height="23" viewBox="0 0 26 23" fill="none" xmlns="http://www.w3.org/2000/svg">
<path d="M8.71716 1.00026C8.68572 1.01346 6.39534 1.87134 5.77207 2.25835C5.14877 2.64535 4.38219 2.88356 3.91761 3.31738C3.45304 3.75119 3.29817 3.89579 2.67874 4.61881C2.05932 5.34182 1.55711 6.64325 1.28502 7.51087C1.01293 8.37849 0.97364 9.48837 1.01293 10.1137C1.05547 10.7907 1.2662 11.776 2.05932 13.1504C2.62421 14.1293 4.01796 14.8761 4.81951 15.0255C5.62105 15.1748 6.31451 15.4858 9.00668 15.4334C10.0089 15.4139 10.9194 15.1184 12.2012 14.6972C13.7948 14.1736 14.7431 13.6468 15.0287 13.4742C15.8417 12.9828 16.2308 12.1663 16.4518 11.4983C16.622 10.9836 16.3865 10.4565 16.0471 10.0616C15.4902 9.4135 14.0125 9.11952 12.5897 10.2583C11.5057 11.1259 11.4059 11.5416 10.8324 12.7317C10.1449 14.1586 10.0279 15.2877 9.99378 15.8306C9.9498 16.5293 10.0766 17.0729 10.2655 17.5827C10.6254 18.5539 11.0963 19.364 11.486 19.8919C12.562 21.3492 13.6647 21.7012 14.2847 21.8937C15.1513 22.1629 16.8541 21.7941 18.4448 21.3338C19.4709 21.0368 20.8663 20.4048 21.6187 20.0603C22.371 19.7158 22.4189 19.6251 22.4378 19.5214C22.4768 19.3066 22.3703 19.0562 22.2148 18.8304C22.14 18.7217 22.0005 18.6772 21.8892 18.6548C21.2681 18.53 20.4992 19.1265 20.258 19.4471C19.7763 20.0875 20.7403 21.0633 21.2278 21.455C22.1315 21.9005 22.5428 21.9708 23.1238 21.9755C23.5224 21.9722 24.1318 21.9574 24.8714 21.8153" stroke="#DD8106" stroke-width="2" stroke-linecap="round"/>
</svg>
