<svg width="61" height="59" viewBox="0 0 61 59" fill="none" xmlns="http://www.w3.org/2000/svg">
<g clip-path="url(#clip0_163_4386)">
<path d="M52.9452 58.7302H40.3391V53.8361H52.9452C53.6138 53.8361 54.2551 53.5783 54.7279 53.1194C55.2008 52.6605 55.4664 52.0381 55.4664 51.3891V39.1538H60.5088V51.3891C60.5088 53.3361 59.7119 55.2033 58.2935 56.5801C56.875 57.9568 54.9512 58.7302 52.9452 58.7302Z" fill="#374957"/>
<path d="M5.04243 19.5765H0V7.34119C0 5.39418 0.796882 3.52692 2.21534 2.15018C3.6338 0.773444 5.55764 0 7.56365 0L20.1697 0V4.89412H7.56365C6.89498 4.89412 6.2537 5.15194 5.78088 5.61085C5.30806 6.06977 5.04243 6.69219 5.04243 7.34119V19.5765Z" fill="#374957"/>
<path d="M20.1697 58.7302H7.56365C5.55764 58.7302 3.6338 57.9568 2.21534 56.5801C0.796882 55.2033 0 53.3361 0 51.3891L0 39.1538H5.04243V51.3891C5.04243 52.0381 5.30806 52.6605 5.78088 53.1194C6.2537 53.5783 6.89498 53.8361 7.56365 53.8361H20.1697V58.7302Z" fill="#374957"/>
<path d="M60.5088 19.5765H55.4664V7.34117C55.4664 6.69217 55.2008 6.06975 54.7279 5.61084C54.2551 5.15192 53.6138 4.89411 52.9452 4.89411H40.3391V-1.52588e-05H52.9452C54.9512 -1.52588e-05 56.875 0.773429 58.2935 2.15017C59.7119 3.52691 60.5088 5.39417 60.5088 7.34117V19.5765Z" fill="#374957"/>
</g>
<g clip-path="url(#clip1_163_4386)">
<path d="M24.5234 39.9001L23.4551 38.1197C27.1333 35.9105 27.1333 31.1662 27.1333 28.332C27.1333 27.506 27.4614 26.7138 28.0455 26.1298C28.6296 25.5457 29.4217 25.2176 30.2477 25.2176C31.0737 25.2176 31.8659 25.5457 32.45 26.1298C33.0341 26.7138 33.3622 27.506 33.3622 28.332H31.2859C31.2859 28.0567 31.1765 27.7926 30.9818 27.5979C30.7871 27.4032 30.5231 27.2939 30.2477 27.2939C29.9724 27.2939 29.7084 27.4032 29.5137 27.5979C29.319 27.7926 29.2096 28.0567 29.2096 28.332C29.2096 31.3914 29.2096 37.0877 24.5234 39.9001ZM33.2542 31.5337L31.1821 31.3592C30.854 35.2305 29.5989 38.2266 27.4531 40.2666L28.8826 41.7708C31.4136 39.3717 32.8826 35.9261 33.2584 31.5337H33.2542ZM36.105 38.0273L34.1522 37.3234C33.7306 38.5035 33.1732 39.6305 32.4912 40.6818L34.229 41.8175C34.9995 40.6313 35.629 39.3593 36.105 38.0273ZM37.5148 28.332C37.5138 26.8613 37.0666 25.4254 36.2322 24.2143C35.3979 23.0031 34.2156 22.0736 32.8418 21.5486C31.4679 21.0236 29.9671 20.9278 28.5377 21.2739C27.1082 21.62 25.8174 22.3917 24.8359 23.487L26.3817 24.8719C27.0827 24.0894 28.0047 23.5381 29.0258 23.2907C30.0468 23.0434 31.1189 23.1117 32.1003 23.4867C33.0817 23.8616 33.9262 24.5255 34.5222 25.3907C35.1183 26.2558 35.4378 27.2814 35.4385 28.332C35.4768 30.3531 35.3161 32.373 34.9589 34.3626L36.9967 34.7592C37.381 32.6391 37.5545 30.4862 37.5148 28.332ZM25.057 28.332C25.0567 28.0423 25.0807 27.753 25.1286 27.4672L23.0845 27.1205C23.016 27.5207 22.9813 27.926 22.9807 28.332C22.9807 33.1542 21.5834 35.599 18.8281 35.599V37.6753C22.8447 37.6753 25.057 34.3533 25.057 28.332ZM41.6674 28.332C41.6722 26.6076 41.2815 24.905 40.5254 23.3551L38.6567 24.2635C39.2745 25.5306 39.5941 26.9223 39.5911 28.332C39.7332 32.5814 38.9267 36.8091 37.2303 40.7078L39.099 41.6016C40.9356 37.4258 41.8132 32.8915 41.6674 28.332ZM20.9044 28.332C20.9072 25.8548 21.8924 23.4799 23.6441 21.7283C25.3957 19.9767 27.7706 18.9914 30.2477 18.9887C32.2705 18.9819 34.2396 19.6383 35.8537 20.8573L37.0995 19.1963C35.1264 17.707 32.7198 16.9048 30.2477 16.9124C27.2202 16.916 24.3176 18.1202 22.1768 20.2611C20.036 22.4019 18.8317 25.3044 18.8281 28.332V31.4465H20.9044V28.332Z" fill="#374957"/>
</g>
<defs>
<clipPath id="clip0_163_4386">
<rect width="60.5092" height="58.7295" fill="white"/>
</clipPath>
<clipPath id="clip1_163_4386">
<rect width="24.9155" height="24.9155" fill="white" transform="translate(17.7902 16.9125)"/>
</clipPath>
</defs>
</svg>
