<svg width="54" height="52" viewBox="0 0 54 52" fill="none" xmlns="http://www.w3.org/2000/svg">
<g clip-path="url(#clip0_163_4382)">
<path d="M46.4251 51.4978H35.3715V47.2063H46.4251C47.0114 47.2063 47.5737 46.9803 47.9883 46.5779C48.4029 46.1755 48.6358 45.6297 48.6358 45.0606V34.3321H53.0573V45.0606C53.0573 46.7679 52.3586 48.4052 51.1148 49.6124C49.871 50.8196 48.1841 51.4978 46.4251 51.4978Z" fill="#DD8106"/>
<path d="M4.42147 17.1657H0V6.43714C0 4.7299 0.698748 3.09259 1.94253 1.88539C3.18631 0.678196 4.87323 0 6.6322 0L17.6859 0V4.29143H6.6322C6.04588 4.29143 5.48357 4.51749 5.06898 4.91989C4.65438 5.32229 4.42147 5.86806 4.42147 6.43714V17.1657Z" fill="#DD8106"/>
<path d="M17.6859 51.4978H6.6322C4.87323 51.4978 3.18631 50.8196 1.94253 49.6124C0.698748 48.4052 0 46.7679 0 45.0606L0 34.3321H4.42147V45.0606C4.42147 45.6297 4.65438 46.1755 5.06898 46.5779C5.48357 46.9803 6.04588 47.2063 6.6322 47.2063H17.6859V51.4978Z" fill="#DD8106"/>
<path d="M53.0573 17.1657H48.6358V6.43714C48.6358 5.86806 48.4029 5.32229 47.9883 4.91989C47.5737 4.51749 47.0114 4.29143 46.4251 4.29143H35.3715V0H46.4251C48.1841 0 49.871 0.678196 51.1148 1.88539C52.3586 3.09259 53.0573 4.7299 53.0573 6.43714V17.1657Z" fill="#DD8106"/>
</g>
<path d="M25.9644 24.0401C27.3818 24.0401 28.7674 23.6394 29.946 22.8885C31.1245 22.1377 32.0431 21.0704 32.5855 19.8218C33.128 18.5732 33.2699 17.1992 32.9934 15.8737C32.7168 14.5482 32.0343 13.3306 31.032 12.3749C30.0297 11.4193 28.7527 10.7684 27.3625 10.5048C25.9723 10.2411 24.5314 10.3764 23.2218 10.8936C21.9123 11.4108 20.793 12.2867 20.0055 13.4104C19.218 14.5341 18.7977 15.8553 18.7977 17.2068C18.7977 19.0191 19.5528 20.7572 20.8968 22.0387C22.2408 23.3202 24.0637 24.0401 25.9644 24.0401ZM25.9644 13.7901C26.6731 13.7901 27.3659 13.9905 27.9552 14.366C28.5445 14.7414 29.0038 15.275 29.275 15.8993C29.5462 16.5236 29.6171 17.2106 29.4789 17.8734C29.3406 18.5361 28.9993 19.1449 28.4982 19.6228C27.9971 20.1006 27.3586 20.426 26.6635 20.5578C25.9684 20.6897 25.2479 20.622 24.5931 20.3634C23.9383 20.1048 23.3787 19.6669 22.985 19.105C22.5912 18.5431 22.3811 17.8826 22.3811 17.2068C22.3811 16.3007 22.7586 15.4316 23.4306 14.7909C24.1026 14.1501 25.014 13.7901 25.9644 13.7901Z" fill="#DD8106"/>
<path d="M36.7144 39.4157C37.1896 39.4157 37.6453 39.2357 37.9813 38.9154C38.3173 38.595 38.5061 38.1605 38.5061 37.7074C38.5032 34.9898 37.3697 32.3842 35.3543 30.4625C33.3389 28.5409 30.6063 27.4601 27.7561 27.4574H24.1727C21.3225 27.4601 18.5899 28.5409 16.5745 30.4625C14.5591 32.3842 13.4256 34.9898 13.4227 37.7074C13.4227 38.1605 13.6115 38.595 13.9475 38.9154C14.2835 39.2357 14.7392 39.4157 15.2144 39.4157C15.6896 39.4157 16.1453 39.2357 16.4813 38.9154C16.8173 38.595 17.0061 38.1605 17.0061 37.7074C17.0061 35.8951 17.7611 34.157 19.1051 32.8755C20.4491 31.594 22.272 30.8741 24.1727 30.8741H27.7561C29.6568 30.8741 31.4797 31.594 32.8237 32.8755C34.1677 34.157 34.9227 35.8951 34.9227 37.7074C34.9227 38.1605 35.1115 38.595 35.4475 38.9154C35.7835 39.2357 36.2392 39.4157 36.7144 39.4157Z" fill="#DD8106"/>
<defs>
<clipPath id="clip0_163_4382">
<rect width="53.0576" height="51.4971" fill="white"/>
</clipPath>
</defs>
</svg>
