<svg width="38" height="51" viewBox="0 0 38 51" fill="none" xmlns="http://www.w3.org/2000/svg">
<path d="M18.583 0L16.2601 2.60162C16.2601 2.60162 12.2958 7.09251 8.30041 12.9152C4.30506 18.7379 0 25.7065 0 32.3964C0 37.3249 1.95785 42.0516 5.44284 45.5365C8.92783 49.0215 13.6545 50.9794 18.583 50.9794C23.5115 50.9794 28.2382 49.0215 31.7232 45.5365C35.2082 42.0516 37.166 37.3249 37.166 32.3964C37.166 25.7065 32.861 18.7379 28.8656 12.9152C24.8703 7.09251 20.9059 2.60162 20.9059 2.60162L18.583 0ZM18.583 9.69414C19.9458 11.3047 21.1846 12.6364 23.7863 16.415C27.5338 21.866 30.9717 28.8037 30.9717 32.3964C30.9717 39.2721 25.4587 44.785 18.583 44.785C11.7073 44.785 6.19434 39.2721 6.19434 32.3964C6.19434 28.8037 9.63219 21.866 13.3798 16.415C15.9814 12.6364 17.2203 11.3047 18.583 9.69414Z" fill="currentColor"/>
</svg>
