<svg width="27" height="27" viewBox="0 0 27 27" fill="none" xmlns="http://www.w3.org/2000/svg">
<path d="M14.5 4.5C14.5 3.94772 14.0523 3.5 13.5 3.5C12.9477 3.5 12.5 3.94772 12.5 4.5H13.5H14.5ZM12.5 5.625C12.5 6.17728 12.9477 6.625 13.5 6.625C14.0523 6.625 14.5 6.17728 14.5 5.625H13.5H12.5ZM20.25 17C19.6977 17 19.25 17.4477 19.25 18C19.25 18.5523 19.6977 19 20.25 19V18V17ZM22.5 19C23.0523 19 23.5 18.5523 23.5 18C23.5 17.4477 23.0523 17 22.5 17V18V19ZM13.5 18V17C12.9477 17 12.5 17.4477 12.5 18H13.5ZM15.75 19C16.3023 19 16.75 18.5523 16.75 18C16.75 17.4477 16.3023 17 15.75 17V18V19ZM12.5 22.5C12.5 23.0523 12.9477 23.5 13.5 23.5C14.0523 23.5 14.5 23.0523 14.5 22.5H13.5H12.5ZM14.5 10.125C14.5 9.57272 14.0523 9.125 13.5 9.125C12.9477 9.125 12.5 9.57272 12.5 10.125H13.5H14.5ZM13.5 13.5H12.5C12.5 14.0523 12.9477 14.5 13.5 14.5V13.5ZM18 21.5C17.4477 21.5 17 21.9477 17 22.5C17 23.0523 17.4477 23.5 18 23.5V22.5V21.5ZM22.5 23.5C23.0523 23.5 23.5 23.0523 23.5 22.5C23.5 21.9477 23.0523 21.5 22.5 21.5V22.5V23.5ZM4.5 12.5C3.94772 12.5 3.5 12.9477 3.5 13.5C3.5 14.0523 3.94772 14.5 4.5 14.5V13.5V12.5ZM9 14.5C9.55228 14.5 10 14.0523 10 13.5C10 12.9477 9.55228 12.5 9 12.5V13.5V14.5ZM13.5113 14.5C14.0635 14.5 14.5113 14.0523 14.5113 13.5C14.5113 12.9477 14.0635 12.5 13.5113 12.5V13.5V14.5ZM18.0113 14.5C18.5635 14.5 19.0113 14.0523 19.0113 13.5C19.0113 12.9477 18.5635 12.5 18.0113 12.5V13.5V14.5ZM22.5 12.5C21.9477 12.5 21.5 12.9477 21.5 13.5C21.5 14.0523 21.9477 14.5 22.5 14.5V13.5V12.5ZM22.5112 14.5C23.0635 14.5 23.5112 14.0523 23.5112 13.5C23.5112 12.9477 23.0635 12.5 22.5112 12.5V13.5V14.5ZM5.625 4.5V5.5H7.875V4.5V3.5H5.625V4.5ZM9 5.625H8V7.875H9H10V5.625H9ZM7.875 9V8H5.625V9V10H7.875V9ZM4.5 7.875H5.5V5.625H4.5H3.5V7.875H4.5ZM5.625 9V8C5.55596 8 5.5 7.94404 5.5 7.875H4.5H3.5C3.5 9.0486 4.45139 10 5.625 10V9ZM9 7.875H8C8 7.94404 7.94404 8 7.875 8V9V10C9.0486 10 10 9.0486 10 7.875H9ZM7.875 4.5V5.5C7.94404 5.5 8 5.55596 8 5.625H9H10C10 4.45139 9.0486 3.5 7.875 3.5V4.5ZM5.625 4.5V3.5C4.45139 3.5 3.5 4.45139 3.5 5.625H4.5H5.5C5.5 5.55596 5.55596 5.5 5.625 5.5V4.5ZM19.125 4.5V5.5H21.375V4.5V3.5H19.125V4.5ZM22.5 5.625H21.5V7.875H22.5H23.5V5.625H22.5ZM21.375 9V8H19.125V9V10H21.375V9ZM18 7.875H19V5.625H18H17V7.875H18ZM19.125 9V8C19.056 8 19 7.94404 19 7.875H18H17C17 9.0486 17.9514 10 19.125 10V9ZM22.5 7.875H21.5C21.5 7.94404 21.444 8 21.375 8V9V10C22.5486 10 23.5 9.0486 23.5 7.875H22.5ZM21.375 4.5V5.5C21.444 5.5 21.5 5.55596 21.5 5.625H22.5H23.5C23.5 4.45139 22.5486 3.5 21.375 3.5V4.5ZM19.125 4.5V3.5C17.9514 3.5 17 4.45139 17 5.625H18H19C19 5.55596 19.056 5.5 19.125 5.5V4.5ZM5.625 18V19H7.875V18V17H5.625V18ZM9 19.125H8V21.375H9H10V19.125H9ZM7.875 22.5V21.5H5.625V22.5V23.5H7.875V22.5ZM4.5 21.375H5.5V19.125H4.5H3.5V21.375H4.5ZM5.625 22.5V21.5C5.55596 21.5 5.5 21.444 5.5 21.375H4.5H3.5C3.5 22.5486 4.45139 23.5 5.625 23.5V22.5ZM9 21.375H8C8 21.444 7.94404 21.5 7.875 21.5V22.5V23.5C9.0486 23.5 10 22.5486 10 21.375H9ZM7.875 18V19C7.94404 19 8 19.056 8 19.125H9H10C10 17.9514 9.0486 17 7.875 17V18ZM5.625 18V17C4.45139 17 3.5 17.9514 3.5 19.125H4.5H5.5C5.5 19.056 5.55596 19 5.625 19V18ZM13.5 4.5H12.5V5.625H13.5H14.5V4.5H13.5ZM20.25 18V19H22.5V18V17H20.25V18ZM13.5 18V19H15.75V18V17H13.5V18ZM13.5 18H12.5V22.5H13.5H14.5V18H13.5ZM13.5 10.125H12.5V13.5H13.5H14.5V10.125H13.5ZM18 22.5V23.5H22.5V22.5V21.5H18V22.5ZM4.5 13.5V14.5H9V13.5V12.5H4.5V13.5ZM13.5 13.5V14.5H13.5113V13.5V12.5H13.5V13.5ZM22.5 13.5V14.5H22.5112V13.5V12.5H22.5V13.5ZM13.5 13.5V14.5H18.0113V13.5V12.5H13.5V13.5Z" fill="#545F71"/>
</svg>
