<svg width="54" height="52" viewBox="0 0 54 52" fill="none" xmlns="http://www.w3.org/2000/svg">
<g clip-path="url(#clip0_163_4378)">
<path d="M46.4251 51.4978H35.3715V47.2063H46.4251C47.0114 47.2063 47.5737 46.9803 47.9883 46.5779C48.4029 46.1755 48.6358 45.6297 48.6358 45.0606V34.3321H53.0573V45.0606C53.0573 46.7679 52.3586 48.4052 51.1148 49.6124C49.871 50.8196 48.1841 51.4978 46.4251 51.4978Z" fill="#B26805"/>
<path d="M4.42147 17.1657H0V6.43714C0 4.7299 0.698748 3.09259 1.94253 1.88539C3.18631 0.678196 4.87323 0 6.6322 0L17.6859 0V4.29143H6.6322C6.04588 4.29143 5.48357 4.51749 5.06898 4.91989C4.65438 5.32229 4.42147 5.86806 4.42147 6.43714V17.1657Z" fill="#B26805"/>
<path d="M17.6859 51.4978H6.6322C4.87323 51.4978 3.18631 50.8196 1.94253 49.6124C0.698748 48.4052 0 46.7679 0 45.0606L0 34.3321H4.42147V45.0606C4.42147 45.6297 4.65438 46.1755 5.06898 46.5779C5.48357 46.9803 6.04588 47.2063 6.6322 47.2063H17.6859V51.4978Z" fill="#B26805"/>
<path d="M53.0573 17.1657H48.6358V6.43711C48.6358 5.86803 48.4029 5.32226 47.9883 4.91986C47.5737 4.51746 47.0114 4.29139 46.4251 4.29139H35.3715V-3.05176e-05H46.4251C48.1841 -3.05176e-05 49.871 0.678166 51.1148 1.88536C52.3586 3.09256 53.0573 4.72987 53.0573 6.43711V17.1657Z" fill="#B26805"/>
</g>
<path d="M22.4793 12.8706C22.4428 12.887 19.7866 13.9525 19.0637 14.4332C18.3408 14.9138 17.4518 15.2097 16.913 15.7485C16.3742 16.2873 16.1946 16.4668 15.4762 17.3648C14.7578 18.2628 14.1754 19.8792 13.8599 20.9568C13.5443 22.0344 13.4987 23.4128 13.5443 24.1895C13.5936 25.0304 13.838 26.2541 14.7578 27.961C15.413 29.1768 17.0294 30.1044 17.959 30.2899C18.8886 30.4754 19.6928 30.8616 22.8151 30.7966C23.9773 30.7724 25.0333 30.4054 26.5199 29.8822C28.3681 29.2318 29.4679 28.5775 29.7991 28.3632C30.742 27.7529 31.1932 26.7388 31.4495 25.9092C31.647 25.2699 31.3738 24.6153 30.9802 24.1248C30.3343 23.3198 28.6206 22.9547 26.9704 24.3691C25.7133 25.4467 25.5976 25.963 24.9325 27.4411C24.1351 29.2132 23.9995 30.6156 23.9598 31.2899C23.9088 32.1577 24.0559 32.8328 24.275 33.4659C24.6924 34.6722 25.2385 35.6784 25.6905 36.334C26.9384 38.1439 28.2172 38.5811 28.9363 38.8203C29.9413 39.1545 31.9161 38.6965 33.7609 38.1248C34.9509 37.756 36.5692 36.971 37.4418 36.5431C38.3144 36.1153 38.3699 36.0026 38.3918 35.8738C38.4371 35.6071 38.3136 35.296 38.1332 35.0156C38.0464 34.8807 37.8847 34.8253 37.7556 34.7975C37.0353 34.6425 36.1435 35.3833 35.8637 35.7816C35.3051 36.5769 36.4231 37.7888 36.9885 38.2754C38.0366 38.8287 38.5136 38.916 39.1874 38.9218C39.6497 38.9178 40.3565 38.8994 41.2141 38.7229" stroke="#B26805" stroke-width="2.5" stroke-linecap="round"/>
<defs>
<clipPath id="clip0_163_4378">
<rect width="53.0576" height="51.4971" fill="white"/>
</clipPath>
</defs>
</svg>
