<svg width="80" height="81" viewBox="0 0 80 81" fill="none" xmlns="http://www.w3.org/2000/svg">
<path d="M26.2718 2.00046C26.1729 2.04827 18.9693 5.15645 17.009 6.5586C15.0486 7.96074 12.6376 8.82378 11.1764 10.3955C9.71524 11.9672 9.22815 12.4912 7.27994 15.1107C5.33173 17.7302 3.75221 22.4454 2.89644 25.5888C2.04067 28.7323 1.91709 32.7534 2.04067 35.0191C2.17445 37.472 2.83726 41.0416 5.33173 46.0212C7.10843 49.5678 11.492 52.2737 14.013 52.8148C16.534 53.3559 18.7151 54.4825 27.1824 54.2927C30.3344 54.2221 33.1981 53.1515 37.2297 51.6255C42.2418 49.7282 45.2244 47.8195 46.1226 47.1942C48.6797 45.414 49.9035 42.4558 50.5985 40.0356C51.134 38.1706 50.3931 36.2612 49.3257 34.8302C47.5741 32.4822 42.9266 31.4171 38.4515 35.543C35.0421 38.6865 34.7284 40.1925 32.9247 44.5044C30.7622 49.6738 30.3944 53.7648 30.287 55.7318C30.1487 58.2633 30.5476 60.2328 31.1417 62.0796C32.2736 65.5984 33.7547 68.5336 34.9804 70.446C38.3645 75.7259 41.8326 77.0011 43.7828 77.6989C46.5083 78.674 51.8639 77.3378 56.8669 75.6701C60.0941 74.5942 64.4829 72.3044 66.8493 71.0562C69.2156 69.808 69.3663 69.4795 69.4256 69.1038C69.5484 68.3257 69.2135 67.4181 68.7243 66.6002C68.4889 66.2066 68.0504 66.045 67.7002 65.9639C65.7467 65.5117 63.3283 67.6729 62.5696 68.8346C61.0546 71.1546 64.0866 74.6901 65.62 76.1094C68.4623 77.7234 69.7558 77.978 71.5831 77.9952C72.8369 77.9832 74.7536 77.9296 77.0796 77.4147" stroke="#B26805" stroke-width="4" stroke-linecap="round"/>
</svg>
